<svg xmlns="http://www.w3.org/2000/svg" style="display:none;">
  <symbol id="bolt" viewBox="0 0 24 24">
    <path d="M13 2L4 14h6l-1 8 9-12h-6l1-8z" fill="currentColor"/>
  </symbol>
  <symbol id="target" viewBox="0 0 24 24">
    <circle cx="12" cy="12" r="9" fill="none" stroke="currentColor" stroke-width="2"/>
    <circle cx="12" cy="12" r="5" fill="none" stroke="currentColor" stroke-width="2"/>
    <circle cx="12" cy="12" r="2" fill="currentColor"/>
  </symbol>
  <symbol id="shield" viewBox="0 0 24 24">
    <path d="M12 2l8 3v6c0 5.5-3.5 9.7-8 11-4.5-1.3-8-5.5-8-11V5l8-3z" fill="none" stroke="currentColor" stroke-width="2"/>
    <path d="M8.5 12l2.3 2.3L15.5 9.6" fill="none" stroke="currentColor" stroke-width="2" stroke-linecap="round" stroke-linejoin="round"/>
  </symbol>
  <symbol id="inbox" viewBox="0 0 24 24">
    <path d="M3 4h18v13h-5l-2 3h-4l-2-3H3V4z" fill="none" stroke="currentColor" stroke-width="2" stroke-linejoin="round"/>
    <path d="M3 12h6l1.5 2h3L15 12h6" fill="none" stroke="currentColor" stroke-width="2" stroke-linejoin="round"/>
  </symbol>
  <symbol id="spark" viewBox="0 0 24 24">
    <path d="M12 3l2.2 4.8L19 10l-4.8 2.2L12 17l-2.2-4.8L5 10l4.8-2.2L12 3z" fill="none" stroke="currentColor" stroke-width="2" stroke-linejoin="round"/>
  </symbol>
  <symbol id="flow" viewBox="0 0 24 24">
    <path d="M4 6h7v4H4zM13 14h7v4h-7z" fill="none" stroke="currentColor" stroke-width="2"/>
    <path d="M11 8h4a2 2 0 0 1 2 2v4" fill="none" stroke="currentColor" stroke-width="2"/>
  </symbol>
  <symbol id="check" viewBox="0 0 24 24">
    <circle cx="12" cy="12" r="9" fill="none" stroke="currentColor" stroke-width="2"/>
    <path d="M8 12.5l2.5 2.5L16 9.5" fill="none" stroke="currentColor" stroke-width="2" stroke-linecap="round" stroke-linejoin="round"/>
  </symbol>
</svg>
